<svg xmlns="http://www.w3.org/2000/svg" version="1.1" xmlns:xlink="http://www.w3.org/1999/xlink" xmlns:svgjs="http://svgjs.dev/svgjs" width="2000" height="227" viewBox="0 0 2000 227"><g transform="matrix(1,0,0,1,-1.2121212121212466,-0.12613656239487625)"><svg viewBox="0 0 396 45" data-background-color="#ffffff" preserveAspectRatio="xMidYMid meet" height="227" width="2000" xmlns="http://www.w3.org/2000/svg" xmlns:xlink="http://www.w3.org/1999/xlink"><g id="tight-bounds" transform="matrix(1,0,0,1,0.2400000000000091,0.025005045408676096)"><svg viewBox="0 0 395.52 44.94998990918264" height="44.94998990918264" width="395.52"><g><svg viewBox="0 0 395.52 44.94998990918264" height="44.94998990918264" width="395.52"><g><svg viewBox="0 0 395.52 44.94998990918264" height="44.94998990918264" width="395.52"><g id="textblocktransform"><svg viewBox="0 0 395.52 44.94998990918264" height="44.94998990918264" width="395.52" id="textblock"><g><svg viewBox="0 0 395.52 44.94998990918264" height="44.94998990918264" width="395.52"><g transform="matrix(1,0,0,1,0,0)"><svg width="395.52" viewBox="2.55 -34.55 397.37 45.05" height="44.94998990918264" data-palette-color="#111111"><g class="wordmark-text-0" data-fill-palette-color="primary" id="text-0"><path d="M23.65-24.85L23.65-24.85Q23.65-25.9 22.78-26.65 21.9-27.4 20.7-27.4L20.7-27.4Q18.3-27.4 16.75-24.68 15.2-21.95 15.2-18.5L15.2-18.5Q15.2-15.85 16.2-13.73 17.2-11.6 19.1-10.35 21-9.1 23.5-9.1L23.5-9.1Q25.35-9.1 27.05-9.83 28.75-10.55 29.8-11.43 30.85-12.3 31.98-13.03 33.1-13.75 33.95-13.75L33.95-13.75Q35.05-13.75 35.85-12.88 36.65-12 36.65-11.05L36.65-11.05Q36.65-10 36.02-8.6 35.4-7.2 34.05-5.63 32.7-4.05 30.9-2.73 29.1-1.4 26.43-0.53 23.75 0.35 20.8 0.35L20.8 0.35Q16.9 0.35 13.58-0.83 10.25-2 7.8-4.17 5.35-6.35 3.95-9.65 2.55-12.95 2.55-17.05L2.55-17.05Q2.55-25.15 7.4-29.85 12.25-34.55 20.1-34.55L20.1-34.55Q24.1-34.55 27.5-33.2 30.9-31.85 32.9-29.45 34.9-27.05 34.9-24.2L34.9-24.2Q34.9-20.9 32.7-18.23 30.5-15.55 27-15.55L27-15.55Q25-15.55 23.4-16.65 21.8-17.75 21.8-19.8L21.8-19.8Q21.8-20.75 22.73-22.45 23.65-24.15 23.65-24.85ZM57.15-4.15L57.1-13.4Q57.1-16.25 54.9-16.25L54.9-16.25Q54.5-16.25 54.17-16.15 53.85-16.05 53.57-15.9 53.3-15.75 53.07-15.48 52.85-15.2 52.67-14.88 52.5-14.55 52.42-14.1 52.35-13.65 52.35-13.1L52.35-13.1 52.35-7.6Q52.35-3.5 51.02-1.78 49.7-0.05 47-0.05L47-0.05Q44.2-0.05 42.9-1.63 41.6-3.2 41.6-7.2L41.6-7.2 41.5-28.5Q41.5-31.6 43-33.05 44.5-34.5 47-34.5L47-34.5Q49.65-34.5 51-33.4 52.35-32.3 52.35-28.95L52.35-28.95 52.35-21.7Q56.05-23.95 61.35-23.95L61.35-23.95Q63.75-23.95 65.2-22.73 66.65-21.5 67.35-18.85 68.05-16.2 68.05-11.9L68.05-11.9Q68.05-9.7 67.97-8.1 67.9-6.5 67.75-5.18 67.6-3.85 67.3-3 67-2.15 66.6-1.55 66.2-0.95 65.57-0.63 64.95-0.3 64.2-0.15 63.45 0 62.4 0L62.4 0Q59.6 0 58.37-1.03 57.15-2.05 57.15-4.15L57.15-4.15ZM81.6 0.3L81.6 0.3Q77.65 0.3 75.05-2.93 72.45-6.15 72.45-11.75L72.45-11.75Q72.45-17.45 75.02-20.83 77.6-24.2 81.6-24.2L81.6-24.2Q85.65-24.2 89.1-21.35L89.1-21.35Q90.45-23.85 93.45-23.85L93.45-23.85Q96.15-23.85 97.65-22.68 99.15-21.5 99.15-18.35L99.15-18.35 99.15-5.35Q99.15-2.35 97.9-1.18 96.65 0 93.5 0L93.5 0Q90.2 0 89.15-1.85L89.15-1.85Q85.95 0.3 81.6 0.3ZM88.4-7.2L88.4-16.55Q87.55-18 86.2-18L86.2-18Q84.9-18 84.1-16.1 83.3-14.2 83.3-11.75L83.3-11.75Q83.3-9.45 84.05-7.65 84.8-5.85 86.15-5.85L86.15-5.85Q87.55-5.85 88.4-7.2L88.4-7.2ZM106.34-10.7L106.34-10.7 106.34-16.6Q105.09-16.65 104.34-17.03 103.59-17.4 103.27-18 102.94-18.6 102.94-19.5L102.94-19.5Q102.94-22.35 106.39-22.6L106.39-22.6 106.39-27.25Q106.39-29.15 109.14-30.68 111.89-32.2 114.59-32.2L114.59-32.2Q116.24-32.2 116.74-31.25 117.24-30.3 117.24-28.4L117.24-28.4 117.29-22.65 118.64-22.65Q121.39-22.65 122.42-21.93 123.44-21.2 123.44-19.3L123.44-19.3Q123.44-18.5 123.14-17.95 122.84-17.4 122.17-17.1 121.49-16.8 120.54-16.68 119.59-16.55 118.19-16.55L118.19-16.55 117.29-16.55 117.29-11.05Q117.29-10.25 117.37-9.73 117.44-9.2 117.59-8.9 117.74-8.6 118.02-8.5 118.29-8.4 118.69-8.4L118.69-8.4Q119.29-8.4 119.69-8.83 120.09-9.25 120.32-9.78 120.54-10.3 120.92-10.73 121.29-11.15 121.79-11.15L121.79-11.15Q122.94-11.15 123.57-10.6 124.19-10.05 124.19-9.25L124.19-9.25Q124.19-7.9 123.67-6.35 123.14-4.8 122.14-3.35 121.14-1.9 119.37-0.95 117.59 0 115.39 0L115.39 0Q110.44 0 108.39-2.5 106.34-5 106.34-10.7ZM132.74-17.3L139.69-17.3Q141.49-17.3 142.54-16.93 143.59-16.55 144.04-15.7 144.49-14.85 144.49-13.4L144.49-13.4Q144.49-11.55 143.24-10.83 141.99-10.1 139.24-10.1L139.24-10.1 132.39-10.1Q128.34-10.1 128.34-13.6L128.34-13.6Q128.34-17.3 132.74-17.3L132.74-17.3ZM164.14-26.1L164.14-26.1Q161.99-26.1 160.96-24.85 159.94-23.6 159.94-20.4L159.94-20.4 159.94-14.5 168.24-14.5 168.24-20.5Q168.24-22.6 167.74-23.88 167.24-25.15 166.36-25.63 165.49-26.1 164.14-26.1ZM168.24-4.95L168.24-7.6 159.94-7.6 159.94-4.95Q159.94-2.4 158.59-1.2 157.24 0 153.94 0L153.94 0Q152.54 0 151.64-0.4 150.74-0.8 150.06-1.75 149.39-2.7 149.06-4.53 148.74-6.35 148.56-8.93 148.39-11.5 148.39-15.45L148.39-15.45Q148.39-18.9 149.11-21.78 149.84-24.65 151.06-26.65 152.29-28.65 153.84-30.18 155.39-31.7 157.21-32.55 159.04-33.4 160.76-33.83 162.49-34.25 164.24-34.25L164.24-34.25Q166.34-34.25 168.39-33.68 170.44-33.1 172.54-31.7 174.64-30.3 176.21-28.23 177.79-26.15 178.79-22.85 179.79-19.55 179.79-15.45L179.79-15.45Q179.79-8.85 179.31-5.68 178.84-2.5 177.71-1.25 176.59 0 174.24 0L174.24 0Q170.94 0 169.59-1.2 168.24-2.4 168.24-4.95L168.24-4.95ZM199.53-4.15L199.49-13.45Q199.49-16.25 197.28-16.25L197.28-16.25Q196.24-16.25 195.56-15.38 194.89-14.5 194.78-13.05L194.78-13.05 194.78-5.35Q194.78-2.3 193.53-1.15 192.28 0 189.14 0L189.14 0Q186.19 0 185.11-1.38 184.03-2.75 184.03-5.9L184.03-5.9 184.03-18.2Q184.03-20.75 185.41-22.3 186.78-23.85 189.09-23.85L189.09-23.85Q190.99-23.85 192.28-23.3 193.59-22.75 194.24-21.4L194.24-21.4Q198.14-23.95 203.74-23.95L203.74-23.95Q207.29-23.95 208.86-21.15 210.44-18.35 210.44-11.95L210.44-11.95Q210.44-8.8 210.29-6.83 210.14-4.85 209.81-3.43 209.49-2 208.79-1.3 208.09-0.6 207.16-0.3 206.24 0 204.79 0L204.79 0Q201.99 0 200.76-1.05 199.53-2.1 199.53-4.15L199.53-4.15ZM240.83-14.1L240.83-14.1Q240.83-5.55 240.33-2.15L240.33-2.15Q239.93 0.9 239.08 3.13 238.23 5.35 236.68 7.08 235.13 8.8 232.73 9.65 230.33 10.5 227.03 10.5L227.03 10.5Q224.38 10.5 222.11 9.73 219.83 8.95 218.51 7.83 217.18 6.7 216.43 5.6 215.68 4.5 215.68 3.7 215.68 2.9 216.21 2.23 216.73 1.55 217.63 1.55L217.63 1.55Q218.28 1.55 219.16 1.95 220.03 2.35 220.83 2.85 221.63 3.35 222.73 3.75 223.83 4.15 224.88 4.15L224.88 4.15Q227.58 4.15 228.71 2.8 229.83 1.45 229.83-1.05L229.83-1.05Q228.98-0.7 228.18-0.45 227.38-0.2 226.63-0.05 225.88 0.1 225.21 0.15 224.53 0.2 223.88 0.2L223.88 0.2Q220.93 0.2 218.83-1.45 216.73-3.1 215.81-5.53 214.88-7.95 214.88-10.75L214.88-10.75Q214.88-13.55 214.96-15.5 215.03-17.45 215.28-18.98 215.53-20.5 215.86-21.4 216.18-22.3 216.78-22.88 217.38-23.45 218.13-23.65 218.88-23.85 219.93-23.85L219.93-23.85Q223.08-23.85 224.36-22.78 225.63-21.7 225.63-19.4L225.63-19.4 225.68-11.35Q225.68-10.55 225.68-10.18 225.68-9.8 225.76-9.25 225.83-8.7 225.96-8.45 226.08-8.2 226.31-7.93 226.53-7.65 226.91-7.55 227.28-7.45 227.83-7.45L227.83-7.45Q229.33-7.45 229.71-8.28 230.08-9.1 230.08-11.3L230.08-11.3 230.13-19.4Q230.13-20.95 230.66-21.9 231.18-22.85 232.43-23.35 233.68-23.85 235.83-23.85L235.83-23.85Q237.13-23.85 238.06-23.43 238.98-23 239.53-22.33 240.08-21.65 240.36-20.33 240.63-19 240.73-17.65 240.83-16.3 240.83-14.1ZM272.48-7.5L272.48-7.5Q273.78-7.5 274.11-8.13 274.43-8.75 274.43-10.45L274.43-10.45 274.48-19.4Q274.48-21.7 275.78-22.78 277.08-23.85 280.18-23.85L280.18-23.85Q281.53-23.85 282.38-23.55 283.23-23.25 283.86-22.58 284.48-21.9 284.81-20.53 285.13-19.15 285.28-17.23 285.43-15.3 285.43-12.3L285.43-12.3Q285.43-9.65 284.61-7.48 283.78-5.3 282.5-3.95 281.23-2.6 279.53-1.68 277.83-0.75 276.13-0.38 274.43 0 272.73 0L272.73 0Q268.68 0 265.28-2.55L265.28-2.55Q261.93 0 257.88 0L257.88 0Q256.18 0 254.51-0.38 252.83-0.75 251.11-1.68 249.38-2.6 248.08-3.95 246.78-5.3 245.96-7.48 245.13-9.65 245.13-12.3L245.13-12.3Q245.13-17.25 245.58-19.63 246.03-22 247.08-22.93 248.13-23.85 250.38-23.85L250.38-23.85Q252.48-23.85 253.73-23.35 254.98-22.85 255.51-21.9 256.03-20.95 256.03-19.4L256.03-19.4 256.08-10.5Q256.08-9.75 256.11-9.43 256.13-9.1 256.23-8.63 256.33-8.15 256.53-7.98 256.73-7.8 257.08-7.65 257.43-7.5 257.98-7.5L257.98-7.5Q259.98-7.5 260.33-8.65L260.33-8.65Q259.88-11.65 259.88-15.1L259.88-15.1Q259.88-18 260.08-19.63 260.28-21.25 260.96-22.25 261.63-23.25 262.63-23.55 263.63-23.85 265.48-23.85L265.48-23.85Q267.13-23.85 268.08-23.55 269.03-23.25 269.63-22.25 270.23-21.25 270.43-19.63 270.63-18 270.63-15.1L270.63-15.1Q270.63-11.6 270.23-8.6L270.23-8.6Q270.58-7.5 272.48-7.5ZM305.48-4.15L305.43-13.4Q305.43-16.25 303.23-16.25L303.23-16.25Q302.83-16.25 302.5-16.15 302.18-16.05 301.9-15.9 301.63-15.75 301.4-15.48 301.18-15.2 301-14.88 300.83-14.55 300.75-14.1 300.68-13.65 300.68-13.1L300.68-13.1 300.68-7.6Q300.68-3.5 299.35-1.78 298.03-0.05 295.33-0.05L295.33-0.05Q292.53-0.05 291.23-1.63 289.93-3.2 289.93-7.2L289.93-7.2 289.83-28.5Q289.83-31.6 291.33-33.05 292.83-34.5 295.33-34.5L295.33-34.5Q297.98-34.5 299.33-33.4 300.68-32.3 300.68-28.95L300.68-28.95 300.68-21.7Q304.38-23.95 309.68-23.95L309.68-23.95Q312.08-23.95 313.53-22.73 314.98-21.5 315.68-18.85 316.38-16.2 316.38-11.9L316.38-11.9Q316.38-9.7 316.3-8.1 316.23-6.5 316.08-5.18 315.93-3.85 315.63-3 315.33-2.15 314.93-1.55 314.53-0.95 313.9-0.63 313.28-0.3 312.53-0.15 311.78 0 310.73 0L310.73 0Q307.93 0 306.7-1.03 305.48-2.05 305.48-4.15L305.48-4.15ZM334.73 0.3L334.73 0.3Q328.63 0.3 324.65-2.85 320.68-6 320.68-11.45L320.68-11.45Q320.68-17.35 324.6-20.78 328.53-24.2 334.73-24.2L334.73-24.2Q340.57-24.2 343.3-22.13 346.03-20.05 346.03-16.45L346.03-16.45Q346.03-15.75 345.85-15.1 345.68-14.45 345.3-13.83 344.93-13.2 344.3-12.68 343.68-12.15 342.88-11.73 342.07-11.3 340.98-11.08 339.88-10.85 338.63-10.85L338.63-10.85 331.57-10.8Q332.07-9.2 333.38-8.28 334.68-7.35 336.68-7.35L336.68-7.35Q338.82-7.35 341.07-7.9L341.07-7.9Q342.03-8.15 343.15-8.7 344.28-9.25 344.78-9.25L344.78-9.25Q345.63-9.25 346.1-8.75 346.57-8.25 346.57-7.5L346.57-7.5Q346.57-6.6 345.78-5.33 344.98-4.05 343.55-2.78 342.13-1.5 339.78-0.6 337.43 0.3 334.73 0.3ZM331.32-14L331.32-14Q334.78-14.05 335.07-14.05L335.07-14.05Q335.82-14.05 336.18-14.95L336.18-14.95Q336.43-15.6 336.43-16.75L336.43-16.75Q336.43-19.9 334.53-19.9L334.53-19.9Q333.82-19.9 333.15-19.15 332.48-18.4 331.98-17.03 331.48-15.65 331.32-14ZM361.47-15.4L361.47-5.35Q361.47-2.35 360.22-1.18 358.97 0 355.77 0L355.77 0Q352.82 0 351.77-1.38 350.72-2.75 350.72-5.9L350.72-5.9 350.72-18.2Q350.72-19.9 351.32-21.18 351.92-22.45 353.07-23.15 354.22-23.85 355.77-23.85L355.77-23.85Q359.57-23.85 360.77-21.65L360.77-21.65Q363.67-23.85 366.37-23.85L366.37-23.85Q371.62-23.85 371.62-18.85L371.62-18.85Q371.62-16.85 370.47-15.6 369.32-14.35 367.47-14.35L367.47-14.35Q366.37-14.35 365.7-14.8 365.02-15.25 364.45-15.7 363.87-16.15 363.12-16.15L363.12-16.15Q362.02-16.15 361.47-15.4L361.47-15.4ZM388.07 0.3L388.07 0.3Q381.97 0.3 378-2.85 374.02-6 374.02-11.45L374.02-11.45Q374.02-17.35 377.95-20.78 381.87-24.2 388.07-24.2L388.07-24.2Q393.92-24.2 396.65-22.13 399.37-20.05 399.37-16.45L399.37-16.45Q399.37-15.75 399.2-15.1 399.02-14.45 398.65-13.83 398.27-13.2 397.65-12.68 397.02-12.15 396.22-11.73 395.42-11.3 394.32-11.08 393.22-10.85 391.97-10.85L391.97-10.85 384.92-10.8Q385.42-9.2 386.72-8.28 388.02-7.35 390.02-7.35L390.02-7.35Q392.17-7.35 394.42-7.9L394.42-7.9Q395.37-8.15 396.5-8.7 397.62-9.25 398.12-9.25L398.12-9.25Q398.97-9.25 399.45-8.75 399.92-8.25 399.92-7.5L399.92-7.5Q399.92-6.6 399.12-5.33 398.32-4.05 396.9-2.78 395.47-1.5 393.12-0.6 390.77 0.3 388.07 0.3ZM384.67-14L384.67-14Q388.12-14.05 388.42-14.05L388.42-14.05Q389.17-14.05 389.52-14.95L389.52-14.95Q389.77-15.6 389.77-16.75L389.77-16.75Q389.77-19.9 387.87-19.9L387.87-19.9Q387.17-19.9 386.5-19.15 385.82-18.4 385.32-17.03 384.82-15.65 384.67-14Z" fill="#111111" data-fill-palette-color="primary"></path></g></svg></g></svg></g></svg></g></svg></g><g></g></svg></g><defs></defs></svg><rect width="395.52" height="44.94998990918264" fill="none" stroke="none" visibility="hidden"></rect></g></svg></g></svg>